<svg width="16" height="20" xmlns="http://www.w3.org/2000/svg"><path d="M0 7.503C.166 4.34 1.693 1.983 4.776.66 8.643-1.004 13.233.594 15.14 4.176a7.057 7.057 0 0 1 .848 3.786c-.067 1.15-.414 2.238-.924 3.278a28.999 28.999 0 0 1-4.436 6.528 41.587 41.587 0 0 1-1.783 1.842c-.536.53-1.16.513-1.692-.01a32.212 32.212 0 0 1-4.747-5.932c-.662-1.063-1.325-2.129-1.792-3.287C.24 9.457.004 8.506 0 7.503zM8.006 2.78c-2.67-.003-4.84 2.031-4.85 4.548-.009 2.516 2.144 4.565 4.814 4.58 2.67.016 4.85-2.008 4.873-4.524.015-1.217-.488-2.39-1.397-3.255a4.984 4.984 0 0 0-3.44-1.35z" fill="#2E86DE" fill-rule="nonzero"/></svg>