<?xml version="1.0" encoding="UTF-8"?>
<svg width="22px" height="13px" viewBox="0 0 22 13" version="1.1" xmlns="http://www.w3.org/2000/svg" xmlns:xlink="http://www.w3.org/1999/xlink">
    <!-- Generator: Sketch 49 (51002) - http://www.bohemiancoding.com/sketch -->
    <title>left-arrow-chevron</title>
    <desc>Created with Sketch.</desc>
    <defs></defs>
    <g id="Page-1" stroke="none" stroke-width="1" fill="none" fill-rule="evenodd">
        <g id="Liste" transform="translate(-177.000000, -352.000000)" fill="#B5B5B5" fill-rule="nonzero">
            <g id="First_card" transform="translate(8.000000, 135.000000)">
                <g id="left-arrow-chevron" transform="translate(180.000000, 223.500000) rotate(-90.000000) translate(-180.000000, -223.500000) translate(174.000000, 213.000000)">
                    <path d="M11.3264318,0.70359803 L11.3264318,0.70359803 C10.9598074,0.320628367 10.3521414,0.307377887 9.96917175,0.674002254 C9.96580644,0.677223936 9.96246462,0.680470073 9.95914657,0.683740409 L0.722578191,9.78747372 C0.329235728,10.1751594 0.324649964,10.8083077 0.7123356,11.2016502 C0.715717452,11.2050814 0.719124057,11.2084881 0.722555146,11.2118701 L9.95909585,20.3161653 C10.3366647,20.6883283 10.9444424,20.683946 11.3166054,20.3063771 C11.3199056,20.303029 11.3231812,20.2996566 11.3264318,20.2962604 L11.3264318,20.2962604 C11.700029,19.9059285 11.6910492,19.2879614 11.3062682,18.9086496 L2.77603069,10.4996602 L11.3063261,2.09098029 C11.6910615,1.71173007 11.7000159,1.09383766 11.3264318,0.70359803 Z" id="Shape"></path>
                </g>
            </g>
        </g>
    </g>
</svg>