<?xml version="1.0" encoding="UTF-8"?>
<svg width="26px" height="22px" viewBox="0 0 26 22" version="1.1" xmlns="http://www.w3.org/2000/svg" xmlns:xlink="http://www.w3.org/1999/xlink">
    <!-- Generator: Sketch 49 (51002) - http://www.bohemiancoding.com/sketch -->
    <title>Shape</title>
    <desc>Created with Sketch.</desc>
    <defs></defs>
    <g id="Page-1" stroke="none" stroke-width="1" fill="none" fill-rule="evenodd">
        <g id="Liste" transform="translate(-336.000000, -295.000000)" fill-rule="nonzero" stroke="#000000" stroke-width="1.5">
            <g id="First_card" transform="translate(8.000000, 135.000000)">
                <g id="Group" transform="translate(318.000000, 147.000000)">
                    <g id="Favoris" transform="translate(9.000000, 10.000000)">
                        <g id="heart" transform="translate(2.500000, 4.000000)">
                            <path d="M21.1620354,9.65052189 L11.4203942,19.3081057 L1.70055861,9.63424507 C0.632085377,8.57082573 0.0433348187,7.16016742 0.0433348187,5.65727376 C0.0433348187,4.1543801 0.626633983,2.7437218 1.69510722,1.68572807 C2.75812906,0.627734335 4.17549152,0.0417685763 5.68007628,0.0417685763 C7.19011244,0.0417685763 8.61292629,0.627734335 9.68139952,1.69115367 L10.9134146,2.91734128 C11.2023385,3.20489855 11.665707,3.20489855 11.9546308,2.91734128 L13.1757431,1.70200489 C14.2442164,0.638585552 15.6670302,0.052619794 17.171615,0.052619794 C18.6761997,0.052619794 20.0935622,0.638585552 21.1620354,1.69657928 C22.2305087,2.75999862 22.8138078,4.17065693 22.8138078,5.67355059 C22.8192592,7.17644425 22.2305087,8.58710255 21.1620354,9.65052189 Z" id="Shape"></path>
                        </g>
                    </g>
                </g>
            </g>
        </g>
    </g>
</svg>