<?xml version="1.0" encoding="UTF-8"?>
<svg width="12px" height="14px" viewBox="0 0 12 14" version="1.1" xmlns="http://www.w3.org/2000/svg" xmlns:xlink="http://www.w3.org/1999/xlink">
    <!-- Generator: Sketch 49 (51002) - http://www.bohemiancoding.com/sketch -->
    <title>Shape</title>
    <desc>Created with Sketch.</desc>
    <defs></defs>
    <g id="Page-1" stroke="none" stroke-width="1" fill="none" fill-rule="evenodd">
        <g id="Liste" transform="translate(-27.000000, -323.000000)" fill="#B5B5B5" fill-rule="nonzero">
            <g id="First_card" transform="translate(8.000000, 135.000000)">
                <path d="M19,193.252297 C19.1177419,191.038293 20.2039109,189.388579 22.3950875,188.461024 C25.1443608,187.297484 28.4075774,188.415685 29.7633753,190.923032 C30.2136625,191.741418 30.4216962,192.656069 30.3662138,193.5735 C30.3191171,194.378145 30.0718591,195.140182 29.7098028,195.867804 C28.8825422,197.514648 27.8219253,199.051583 26.5560861,200.437841 C26.1528201,200.880314 25.7224735,201.305853 25.2880059,201.727021 C24.9071109,202.09848 24.4638126,202.085916 24.0852724,201.719374 C22.790372,200.461909 21.6578982,199.068636 20.7107897,197.567775 C20.2398222,196.823218 19.7688546,196.077569 19.4362337,195.266915 C19.1707257,194.619594 19.0029435,193.954245 19,193.252297 Z M24.6916432,189.945221 C22.7933168,189.94318 21.2512992,191.367111 21.2443147,193.128556 C21.2373303,194.89 22.7680141,196.324422 24.6663054,196.335342 C26.5645966,196.346263 28.1143303,194.929562 28.130884,193.168173 C28.1412757,192.315967 27.7833692,191.495405 27.1371192,190.889797 C26.4908692,190.284189 25.6101258,189.943998 24.6916432,189.945221 Z" id="Shape"></path>
            </g>
        </g>
    </g>
</svg>