<?xml version="1.0" encoding="UTF-8"?>
<svg width="12px" height="16px" viewBox="0 0 12 16" version="1.1" xmlns="http://www.w3.org/2000/svg" xmlns:xlink="http://www.w3.org/1999/xlink">
    <!-- Generator: Sketch 50 (54983) - http://www.bohemiancoding.com/sketch -->
    <title>Shape</title>
    <desc>Created with Sketch.</desc>
    <defs></defs>
    <g id="Mobile" stroke="none" stroke-width="1" fill="none" fill-rule="evenodd">
        <g id="13.Lieu" transform="translate(-16.000000, -616.000000)" fill="#2E86DE" fill-rule="nonzero">
            <g id="Tarifs" transform="translate(0.000000, 602.000000)">
                <g id="euro-currency-symbol" transform="translate(16.000000, 14.000000)">
                    <path d="M11.0785439,14.6620834 L10.6948894,12.9199016 C10.6731274,12.8174633 10.6183196,12.74074 10.530466,12.6898087 C10.4354735,12.6385703 10.3405577,12.6314699 10.2456804,12.6680084 L10.1907958,12.6898087 L10.0591496,12.7226243 C10.0006189,12.7370555 9.93306867,12.753636 9.85638381,12.7718669 C9.77966057,12.7901361 9.69034843,12.8082519 9.58791004,12.8266363 C9.486009,12.8449055 9.37773673,12.8614477 9.26478201,12.8760324 C9.151597,12.8903484 9.02943088,12.9033595 8.89782309,12.9143748 C8.76617691,12.9251598 8.63483778,12.9306867 8.50322999,12.9306867 C7.57541229,12.9306867 6.74070645,12.6805589 5.99930435,12.1801499 C5.25778711,11.6795874 4.71170495,11.0020126 4.36109625,10.1474639 L8.60163838,10.1474639 C8.68216132,10.1474639 8.7552,10.1201367 8.82071604,10.0652138 C8.88669265,10.0105595 8.92687736,9.94304768 8.9411934,9.8624096 L9.20417871,8.63510645 C9.2262093,8.52583628 9.20417871,8.42708246 9.13862429,8.33934393 C9.06558561,8.2516054 8.97404738,8.20769775 8.86462369,8.20769775 L3.8352024,8.20769775 C3.81328696,7.71097331 3.81328696,7.32747226 3.8352024,7.05711784 L9.1826087,7.05711784 C9.38003958,7.05711784 9.496794,6.96224048 9.53329415,6.77229385 L9.79627946,5.52307526 C9.81804138,5.42082879 9.79286357,5.32595142 9.71955622,5.23821289 C9.65404018,5.15055112 9.56273223,5.10652834 9.44582429,5.10652834 L4.31738051,5.10652834 C4.68265067,4.28836462 5.23049835,3.64552444 5.96111544,3.17796942 C6.69165577,2.71029925 7.51715022,2.4765985 8.4375988,2.4765985 C8.46692174,2.46201379 8.57457991,2.46569835 8.76072684,2.48757541 C8.94698891,2.50937571 9.05311184,2.51858711 9.07855832,2.51490255 C9.10377451,2.51129475 9.19915082,2.52231004 9.36334393,2.54771814 C9.52776732,2.57327976 9.61001739,2.58609895 9.61001739,2.58609895 L9.80176792,2.624403 C9.85669085,2.63545667 9.89867946,2.64443778 9.92784888,2.65184528 L9.97171814,2.66274543 C10.0665955,2.69210675 10.154027,2.68289535 10.2347034,2.63545667 C10.3151112,2.58782609 10.3663112,2.51670645 10.3882651,2.42175232 L10.8595046,0.679455472 C10.8813049,0.584462969 10.8702513,0.496801199 10.8266891,0.416470165 C10.760866,0.328654873 10.6877121,0.273885457 10.6073427,0.252046777 C9.93533313,0.084053973 9.22643958,0 8.48146807,0 C6.84487196,0 5.38217931,0.467670165 4.09273763,1.40262669 C2.80333433,2.33765997 1.91385907,3.57237061 1.42438861,5.10641319 L0.350608696,5.10641319 C0.248285457,5.10641319 0.164346627,5.13922879 0.098561919,5.20497511 C0.0329691154,5.27064468 2.72712055e-16,5.35469865 2.72712055e-16,5.45702189 L2.72712055e-16,6.70624048 C2.72712055e-16,6.80848696 0.032853973,6.89254093 0.098561919,6.95813373 C0.164385007,7.02395682 0.248438981,7.05669565 0.350608696,7.05669565 L1.08483358,7.05669565 C1.06276462,7.40745787 1.05927196,7.79076702 1.07377991,8.2073907 L0.350608696,8.2073907 C0.255654573,8.2073907 0.173481259,8.24204858 0.104088756,8.31144108 C0.0347346327,8.3807952 0,8.4630069 0,8.55784588 L0,9.79616432 C0,9.89127196 0.0347346327,9.97321499 0.104088756,10.0428378 C0.17351964,10.1122303 0.255654573,10.1466195 0.350608696,10.1466195 L1.39164978,10.1466195 C1.85187406,11.7610699 2.72127616,13.0451382 3.99970255,13.9984024 C5.2782057,14.952012 6.77214033,15.4285097 8.48146807,15.4285097 C8.6204066,15.4285097 8.76095712,15.4250939 8.90346507,15.4174945 C9.04624168,15.4101637 9.17930795,15.39911 9.30354663,15.3846789 C9.42767016,15.3702093 9.55010495,15.3539358 9.67065907,15.3355514 C9.79109805,15.317167 9.90075202,15.2992048 9.99927556,15.2806285 C10.0979142,15.2625127 10.1910645,15.2442819 10.2786495,15.2261277 C10.366388,15.2076282 10.4449151,15.1877853 10.5144228,15.1657163 C10.5837769,15.1440696 10.6419622,15.1274891 10.6896312,15.1167424 C10.737185,15.1057271 10.7755274,15.092716 10.8045433,15.0784 L10.8594663,15.0673463 C10.9398741,15.0381769 11.0019742,14.9851346 11.0457283,14.9082963 C11.0895976,14.8320336 11.1003442,14.7497067 11.0785439,14.6620834 Z" id="Shape"></path>
                </g>
            </g>
        </g>
    </g>
</svg>