<?xml version="1.0" encoding="UTF-8"?>
<svg width="19px" height="20px" viewBox="0 0 19 20" version="1.1" xmlns="http://www.w3.org/2000/svg" xmlns:xlink="http://www.w3.org/1999/xlink">
    <!-- Generator: Sketch 50 (54983) - http://www.bohemiancoding.com/sketch -->
    <title>Shape</title>
    <desc>Created with Sketch.</desc>
    <defs></defs>
    <g id="Mobile" stroke="none" stroke-width="1" fill="none" fill-rule="evenodd">
        <g id="16.Fiche-lieu-déroulé" transform="translate(-348.000000, -346.000000)" fill="#000000" fill-rule="nonzero">
            <g id="Description" transform="translate(16.000000, 338.000000)">
                <path d="M347.261411,20.8381743 C346.112033,20.8381743 345.087137,21.3858921 344.431535,22.2323651 L338.941909,19.1659751 C339.070539,18.7966805 339.141079,18.3983402 339.141079,17.9875519 C339.141079,17.5726141 339.070539,17.1784232 338.937759,16.8049793 L344.423237,13.7427386 C345.074689,14.593361 346.103734,15.1452282 347.257261,15.1452282 C349.224066,15.1452282 350.829876,13.5435685 350.829876,11.5726141 C350.829876,9.60165975 349.228216,8 347.257261,8 C345.286307,8 343.684647,9.60165975 343.684647,11.5726141 C343.684647,11.9875519 343.755187,12.3858921 343.887967,12.7551867 L338.406639,15.8174274 C337.755187,14.9626556 336.726141,14.4149378 335.572614,14.4149378 C333.605809,14.4149378 332,16.0165975 332,17.9875519 C332,19.9585062 333.605809,21.560166 335.576763,21.560166 C336.73029,21.560166 337.759336,21.0082988 338.414938,20.153527 L343.900415,23.219917 C343.767635,23.593361 343.692946,23.9958506 343.692946,24.4107884 C343.692946,26.3775934 345.294606,27.9834025 347.26556,27.9834025 C349.236515,27.9834025 350.838174,26.3817427 350.838174,24.4107884 C350.838174,22.439834 349.232365,20.8381743 347.261411,20.8381743 Z M347.261411,9.12448133 C348.614108,9.12448133 349.713693,10.2240664 349.713693,11.5767635 C349.713693,12.9294606 348.614108,14.0290456 347.261411,14.0290456 C345.908714,14.0290456 344.809129,12.9294606 344.809129,11.5767635 C344.809129,10.2240664 345.912863,9.12448133 347.261411,9.12448133 Z M335.576763,20.439834 C334.224066,20.439834 333.124481,19.340249 333.124481,17.9875519 C333.124481,16.6348548 334.224066,15.5352697 335.576763,15.5352697 C336.929461,15.5352697 338.029046,16.6348548 338.029046,17.9875519 C338.029046,19.340249 336.925311,20.439834 335.576763,20.439834 Z M347.261411,26.8589212 C345.908714,26.8589212 344.809129,25.7593361 344.809129,24.406639 C344.809129,23.0539419 345.908714,21.9543568 347.261411,21.9543568 C348.614108,21.9543568 349.713693,23.0539419 349.713693,24.406639 C349.713693,25.7593361 348.614108,26.8589212 347.261411,26.8589212 Z" id="Shape"></path>
            </g>
        </g>
    </g>
</svg>