<?xml version="1.0" encoding="UTF-8"?>
<svg width="9px" height="16px" viewBox="0 0 9 16" version="1.1" xmlns="http://www.w3.org/2000/svg" xmlns:xlink="http://www.w3.org/1999/xlink">
    <!-- Generator: Sketch 49 (51002) - http://www.bohemiancoding.com/sketch -->
    <title>pedestrian-walking copy</title>
    <desc>Created with Sketch.</desc>
    <defs></defs>
    <g id="Page-1" stroke="none" stroke-width="1" fill="none" fill-rule="evenodd">
        <g id="Liste" transform="translate(-90.000000, -322.000000)" fill="#B5B5B5" fill-rule="nonzero">
            <g id="First_card" transform="translate(8.000000, 135.000000)">
                <g id="pedestrian-walking-copy" transform="translate(82.000000, 187.000000)">
                    <path d="M3.64901343,2.36969403 C3.98262129,2.35931399 4.26244121,2.23462885 4.48844092,1.9956386 C4.71444063,1.75664836 4.82204878,1.47610679 4.81129765,1.1540139 C4.80054652,0.831858665 4.67676325,0.556522702 4.44001241,0.327974837 C4.20326157,0.0993958016 3.91804994,-0.00970369718 3.58444209,0.000676340855 C3.25083423,0.0110563789 2.97101431,0.13574152 2.7450146,0.374731765 C2.51901489,0.61372201 2.40601504,0.894263579 2.40601504,1.21635647 C2.40601504,1.53844936 2.52976602,1.8138165 2.77730027,2.04239553 C3.02483452,2.27097457 3.31540558,2.38007407 3.64901343,2.36969403 Z" id="Shape"></path>
                    <path d="M8.14719726,6.9471407 L6.26444159,5.93421416 L4.72400513,3.50319045 C4.42731707,3.14302754 4.0621994,2.96296296 3.62858365,2.96296296 C3.33189559,2.96296296 3.04664099,3.08677635 2.77278562,3.33436936 L0.445014976,5.66410041 C0.376551134,5.75414958 0.330919983,5.85544224 0.308087291,5.96797838 L0,8.56782317 L0,8.63535161 C0,8.79289545 0.0570646128,8.92795233 0.171159606,9.04052223 C0.2852546,9.1530246 0.422182285,9.20934332 0.581942662,9.20934332 C0.741703038,9.20934332 0.872913992,9.1530246 0.975609756,9.04052223 C1.07830552,8.92795233 1.14105263,8.8041727 1.16388532,8.66911583 L1.40350877,6.44067743 L2.22507488,5.6303362 L1.47197261,11.8429523 L0.136927685,14.7804731 C0.091296534,14.9155299 0.0684638425,15.0390395 0.0684638425,15.151947 C0.0684638425,15.3991686 0.154043646,15.607764 0.325203252,15.776585 C0.496362858,15.9454061 0.707471117,16.0184719 0.958493795,15.9960525 C1.30081301,15.9960525 1.55183569,15.8381034 1.71159606,15.5233534 L3.14933676,12.3494494 C3.14933676,12.3268273 3.16073599,12.287492 3.18356868,12.2312746 C3.2064356,12.1748884 3.22926829,12.124242 3.25203252,12.0793356 C3.27486521,12.0342604 3.28626444,11.9891852 3.28626444,11.9442788 L3.45742405,10.4248552 L4.92939666,15.4220608 C5.08915704,15.8272314 5.37441164,16.0185394 5.78519469,15.9960525 C6.01341891,15.9960525 6.21309371,15.9116419 6.38425332,15.7428208 C6.55541292,15.5739997 6.64099273,15.3654044 6.64099273,15.1181828 C6.64099273,15.0952906 6.63527599,15.0675365 6.62387677,15.0337722 C6.61247754,15.000008 6.6067608,14.9717811 6.6067608,14.9492942 L4.55284553,8.02759568 L4.79246898,5.76539307 L5.37441164,6.67702696 C5.42004279,6.7445554 5.4771074,6.80084035 5.54557125,6.84584805 L7.5652546,7.96006725 C7.70218228,8.00507495 7.79347882,8.02759568 7.83910997,8.02759568 C7.99887035,8.02759568 8.13579803,7.96570587 8.24989303,7.84189248 C8.36398802,7.71804533 8.42105263,7.5773836 8.42105263,7.41983976 C8.42105263,7.21725445 8.3297561,7.05967684 8.14719726,6.9471407 Z" id="Shape"></path>
                </g>
            </g>
        </g>
    </g>
</svg>